<svg xmlns="http://www.w3.org/2000/svg" fill="crimson" viewBox="0 0 512 512"><path d="M139.6 35.5a12 12 0 0 0 -17 0L58.9 98.8l-22.7-22.1a12 12 0 0 0 -17 0L3.5 92.4a12 12 0 0 0 0 17l47.6 47.4a12.8 12.8 0 0 0 17.6 0l15.6-15.6L156.5 69a12.1 12.1 0 0 0 .1-17zm0 159.2a12 12 0 0 0 -17 0l-63.7 63.7-22.7-22.1a12 12 0 0 0 -17 0L3.5 252a12 12 0 0 0 0 17L51 316.5a12.8 12.8 0 0 0 17.6 0l15.7-15.7 72.2-72.2a12 12 0 0 0 .1-16.9zM64 368c-26.5 0-48.6 21.5-48.6 48S37.5 464 64 464a48 48 0 0 0 0-96zm432 16H208a16 16 0 0 0 -16 16v32a16 16 0 0 0 16 16h288a16 16 0 0 0 16-16v-32a16 16 0 0 0 -16-16zm0-320H208a16 16 0 0 0 -16 16v32a16 16 0 0 0 16 16h288a16 16 0 0 0 16-16V80a16 16 0 0 0 -16-16zm0 160H208a16 16 0 0 0 -16 16v32a16 16 0 0 0 16 16h288a16 16 0 0 0 16-16v-32a16 16 0 0 0 -16-16z"/></svg>